<svg xmlns="http://www.w3.org/2000/svg" width="147" height="50" viewBox="0 0 147 50"><path fill="#13110C" d="M12.4 14.6H7.5v-1.5c0-.7-.1-1.1-.2-1.3-.1-.2-.3-.3-.6-.3s-.6.1-.7.4c-.2.3-.2.6-.2 1.2 0 .7.1 1.2.3 1.5.2.3.7.7 1.5 1.2 2.3 1.4 3.8 2.5 4.4 3.4.6.9.9 2.3.9 4.3 0 1.4-.2 2.5-.5 3.2-.3.7-1 1.2-1.9 1.7-1.1.4-2.2.6-3.5.6-1.4 0-2.6-.3-3.6-.8s-1.6-1.2-1.9-2c-.3-.8-.5-2-.5-3.5v-1.3h4.9v2.4c0 .8.1 1.2.2 1.5.1.2.4.3.7.3.3 0 .6-.1.8-.4.2-.3.3-.7.3-1.2 0-1.2-.2-2-.5-2.3-.3-.4-1.1-1-2.4-1.8-1.3-.9-2.2-1.5-2.6-1.9-.4-.4-.8-.9-1-1.6-.3-.7-.4-1.6-.4-2.6 0-1.5.2-2.7.6-3.4.4-.7 1-1.3 1.9-1.7.9-.4 1.9-.6 3.2-.6 1.4 0 2.5.2 3.5.7 1 .4 1.6 1 1.9 1.7.3.7.5 1.8.5 3.4v.7zm2-6.1h8.7v4h-3.5v3.8h3.3v3.8h-3.3v4.4h3.8v4h-9.1v-20zm20.4 0l3 20.1h-5.3l-.3-3.6h-1.9l-.3 3.6h-5.4l2.7-20.1h7.5zm-2.7 12.9c-.3-2.3-.5-5.1-.8-8.4-.5 3.8-.9 6.7-1 8.4h1.8zm7.2-12.9H43c2.5 0 4.1.1 5 .3.9.2 1.6.7 2.1 1.5s.8 2 .8 3.7c0 1.6-.2 2.6-.6 3.2-.4.5-1.2.9-2.3 1 1 .3 1.7.6 2.1 1 .4.4.6.8.7 1.2.1.4.1 1.4.1 3v5.3H46V22c0-1.1-.1-1.7-.3-2-.2-.3-.6-.4-1.3-.4v9.1h-5.2V8.5zm5.2 3.4v4.5c.6 0 1-.1 1.2-.2.2-.2.4-.7.4-1.6v-1.1c0-.6-.1-1.1-.3-1.3-.3-.2-.7-.3-1.3-.3zm20.7 5.3H60v-3.5c0-1-.1-1.6-.2-1.9-.1-.3-.4-.4-.7-.4-.4 0-.7.2-.8.5-.1.3-.2 1-.2 2v9.3c0 1 .1 1.6.2 1.9.1.3.4.4.8.4s.6-.1.8-.4c.1-.3.2-1 .2-2.1v-2.5h5.2v.8c0 2.1-.1 3.6-.4 4.4-.3.9-.9 1.6-1.9 2.3-1 .7-2.2 1-3.7 1s-2.8-.3-3.8-.8c-1-.6-1.6-1.3-2-2.3s-.5-2.5-.5-4.4v-5.9c0-1.4 0-2.5.1-3.3.1-.7.4-1.4.9-2.1.5-.7 1.2-1.2 2-1.6.9-.4 1.9-.6 3-.6 1.5 0 2.8.3 3.8.9 1 .6 1.7 1.3 2 2.2.3.9.5 2.3.5 4.1v2zM79 8.5v20.1h-5.2v-8.4h-1.6v8.4H67V8.5h5.2v7.2h1.6V8.5H79zm11.8 0v20.1h-5.2V8.5h5.2zm12.7 0v4h-3.1v16.1h-5.2V12.5H92v-4h11.5z"/><g><path fill="#13110C" d="M34.7 42.1c-.1-.3-.2-.5-.2-1.4V39c0-1-.3-1.4-1.1-1.4h-.6v4.5h-1.7V31h2.6c1.8 0 2.6.8 2.6 2.5v.9c0 1.1-.4 1.9-1.1 2.2.9.4 1.1 1.2 1.1 2.3v1.7c0 .5 0 .9.2 1.3h-1.8zm-1.9-9.5V36h.7c.6 0 1-.3 1-1.2v-1.1c0-.8-.3-1.1-.9-1.1h-.8zm6.7 3.1h2.4v1.6h-2.4v3.2h3v1.6h-4.7V31h4.7v1.6h-3v3.1zM49 38v1.5c0 1.8-.9 2.8-2.6 2.8-1.7 0-2.6-1-2.6-2.8v-5.7c0-1.8.9-2.8 2.6-2.8 1.7 0 2.6 1 2.6 2.8v1.1h-1.6v-1.2c0-.8-.3-1.1-.9-1.1-.6 0-.9.3-.9 1.1v5.9c0 .8.3 1.1.9 1.1.6 0 .9-.3.9-1.1V38H49zm5.1 4.1c-.1-.3-.2-.5-.2-1.4V39c0-1-.3-1.4-1.1-1.4h-.6v4.5h-1.7V31h2.6c1.8 0 2.6.8 2.6 2.5v.9c0 1.1-.4 1.9-1.1 2.2.9.4 1.1 1.2 1.1 2.3v1.7c0 .5 0 .9.2 1.3h-1.8zm-1.9-9.5V36h.7c.6 0 1-.3 1-1.2v-1.1c0-.8-.3-1.1-.9-1.1h-.8zm6.7-1.6v8.5c0 .8.3 1.1.9 1.1.6 0 .9-.3.9-1.1V31h1.6v8.4c0 1.8-.9 2.8-2.6 2.8-1.7 0-2.6-1-2.6-2.8V31h1.8zm5 0h1.7v11h-1.7V31zm2.9 0h5.3v1.6h-1.8V42h-1.7v-9.4h-1.8V31zm10.1 7.9l1.2-7.8h2.4v11h-1.6v-7.9l-1.2 7.9h-1.6l-1.3-7.8v7.8h-1.5V31h2.4l1.2 7.9zm7-3.2h2.4v1.6h-2.4v3.2h3v1.6h-4.7V31h4.7v1.6h-3v3.1zm6-1.6v8h-1.6V31h2.2l1.8 6.6V31h1.5v11H92l-2.1-7.9zM95 31h5.3v1.6h-1.8V42h-1.7v-9.4H95V31z"/></g><g><path fill-rule="evenodd" clip-rule="evenodd" d="M146.6 39.2c-.1-1.9-.7-3.6-2.1-4.9-2.2-2.1-4.7-2.9-7.7-2l-1.5.6c0-.1-.1-.5-.2-.6-.1-.4.1-.1.4-.1.3 0 .6-.1.9-.2.1 0 .1-.1.1-.2v-.6h-.1v.2h-.6c-.1 0-.2.1-.3.1h-.2c0-.1.1-.1.1-.2.2-.1.3-.2.5-.2l.1-.1c-.1 0-.1-.1-.2-.1s-.1 0-.2.1c-.3.2-.6.4-.8.6-.1-.2-.2-.4-.2-.6.1 0 .2 0 .3-.1l1.8-.3c.8-.2 1.4-.9 1.3-1.8 0-.8-.5-1.4-1.4-1.6-.4-.1-.7-.2-1.1-.2-.8-.2-1.6-.3-2.3-.5-.4-.1-.5.1-.5.5 0 .1.1.1.1.2.1.3.2.7.3 1 .1.2 0 .5.1.7 0 .1 0 .2-.2.2-.4 0-.7 0-1.1.1-.2 0-.2-.1-.2-.2 0-.4.1-.9.1-1.3v-.4c-.1-.4-.2-.7-.4-1.1-.2-.4-.7-1.2-.7-1.3-.2-.4-.7-2-.8-2.3-.3-.8-1.4-3.9-1.6-4.6-.1-.3-.2-.5-.5-.6-.4-.1-.9-.3-1.3-.4-.3-.1-.7-.2-1-.2-.2 0-.2-.2-.2-.3 0-.1 0-.2.2-.2.1 0 .1-.1.2-.1.1-.1 0-.2.1-.3.2-.2.3-.4.6-.4.2-.1.3-.2.3-.4 0 0 0-.1.1-.1s.1 0 .2-.1l.3.3c0 .1.1.2.2.2-.1-.3-.2-.7-.3-1.1.2.1.3.2.4.2-.1-.2-.2-.3-.2-.5v-.1c.1 0 .2.1.3.1h.2v-.2c0-.1-.1-.2-.1-.4.3 0 .3.4.5.4.1-.3 0-.6-.3-.8-.1-.1-.2-.2-.4-.2-.1-.1-.1-.1 0-.2.2-.1.4-.2.6 0h.1c-.1-.3-.2-.5-.5-.6-.2-.1-.4-.1-.6-.2-.4-.2-.5-.6-.2-.9-.2-.1-.3-.1-.5 0-.1.1-.3.1-.4.1-.2 0-.2-.1-.2-.2s0-.2.1-.3c-.2 0-.3.2-.4.2-.1-.1-.2-.4-.3-.6l-.3.3-.1-.1h-.1c0 .2 0 .4.1.6h-.1c-.1-.1-.3-.1-.3-.2 0-.2.1-.3.1-.5h-.3v-.1s.1 0 .1-.1c0 0 .1-.1 0-.1-.7 0-1.1-.5-1.6-.9.5-.3 1 0 1.4-.1v-.1c-.5-.1-1.4-.2-1.5-.4.2 0 .5.1.8.1.1 0 .2.1.3.1h.3c0-.1-.1-.2-.1-.2-.1-.1-.2-.2-.2-.3-.1-.3-.3-.4-.7-.4-.4.1-.8.1-1.1.4 0 .1.1.3.1.4.1.2.1.5.4.6.1 0 .2.1.2.2.5.4 1 .8 1.2 1.4.3.7.5 1.5.5 2.3 0 .4-.1.6-.5.6.2.2.3-.1.5-.1 0 .1.1.2 0 .3-.1.1-.3.3-.4.3-.3.1-.3.1-.2.4-.2.1-.2.4-.3.6-.1-.1-.3-.2-.4-.4-.2-.2-.2-.2-.4 0s-.3.4-.4.6c-.2.3-.5.4-.8.5-.2.1-.8-.3-.9-.5-.1-.2-.3-.4-.5-.4s-.3 0-.5.1-.2 0-.3-.1c-.1-.2-.4-.3-.6-.2 0-.1-.1-.1-.1-.2-.1-.3-.3-.4-.5-.3l.3-.3c-.1-.1-.2-.1-.3-.2.1-.2.2-.4.4-.2-.1-.2-.3-.2-.3-.4-.1-.6 0-1.1.3-1.7.2-.4.4-.8.7-1.2.2-.3.3-.6.6-.8.4-.3.6-.7.8-1.2.1-.3.3-.5.4-.7.2-.3.5-.2.7.1.1.1.1.2.2.3.4-.2.8-.4 1.1-.6.1-.1.3-.1.5 0 0 0-.1 0-.1.1.3.1.3.1.5-.3 0 0 0 .1.1.1.1.2.1.4.2.5.2.1.2.3.3.5.1.2.1.3.2.5 0 0 .1.1.2.1 0-.1.1-.2 0-.2-.2-.3-.3-.7-.3-1.1 0-.2 0-.4-.3-.5 0 0-.1 0-.1-.1-.1-.1-.2-.3-.3-.3-.1-.1-.3-.4-.4-.3-.4.1-.6.1-.9-.1-.1 0-.1-.1-.2-.1-.1.6-.1 1.1-.5 1.5-.4-.3-.4-.3-.8-.3s-.5-.1-.5-.4c-.1-.4-.1-.7-.2-1.1 0-.1-1.4-.8-1.4-.8 0-.1-.1-.2-.2-.2-.2 0-.4.2-.4.4s-.1.4-.2.5c-.2-.2-.2-.2-.2 0 0 .1 0 .1-.1.2s-.1.2-.2.3c-.1.1-.1.2-.1.3v.7c0 .2-.2.3-.3.2-.3-.1-.3-.2-.3-.4-.1 0-.3-.1-.4-.1v-.1c.1-.1.2-.1.4-.2.1 0 .1-.1.1-.2V6c0-.1.1-.3.2-.3.2-.1.2-.1.2-.3 0-.2 0-.5.2-.7.4-.4.9-.9.4-1.1-.3-.1-.7-.2-1.1-.2-.2 0-.3.1-.3.2-.2.4-.4.4-.7.3-.1.1-.2.2-.4.3-.1.1-.3.1-.5.1h-.1l.1.1c-.4.4-.9.8-1.1 1.3h.1c.1-.1.1-.2.2-.2.2.4 0 .8-.2 1.2h.1c.1-.1.3-.1.4-.2l.1.1c-.2.4-.4.9-.7 1.3V8c.2-.1.4-.1.6-.2 0 .3-.2.5-.4.6.1 0 .1.1.2.1.2 0 .3.1.3.2 0 .2 0 .5-.2.7-.2.2-.5.3-.7.5-.1 0-.1.1-.1.2h.2c.1 0 .3-.1.5-.1-.2.4-.1.4-.5.4-.2 0-.3.1-.3.2s.1.2.1.2v.2c.1.2.1.2-.1.3l-.6.3v.3h.2c.2-.1.4-.1.4.2 0 .3-.1.6-.3.9.2.1.3 0 .3-.1.1-.2.2-.2.4-.3 0 .1 0 .2-.1.3 0 .1-.1.2-.1.3l.1.1.3-.3h.4c.1.1 0 .3-.1.4-.1.1-.2.3-.3.4v.3h.3c.1 0 .1-.1.2-.1.2-.1.3-.3.5-.4h.1v.3l-.3.9v.2h.2l.3-.3c.1.1.2.1.3.1.1.1.3.1.4.2.2.3.3.7.6 1l.2.2c.3-.7.9-.8 1.5-.6 0-.2-.1-.3-.1-.4 0-.1.1-.2.1-.3l.2.2c0 .1 0 .2.1.2.1.1.2.3.3.5v-.3c.2.1.3.1.5.2.2.2.4.2.6.2h1.4c.4 0 .7-.2 1-.4.2-.1.4-.1.5 0 .1.1.1.2.1.3l.1-.1c.1-.1.1-.2.2-.2h.3c.1 0 .2.1.3.2.2.1.4.2.6.2h.3c-.2.4-.2.7-.1 1.1.1.3.4 2 .5 2.6 0 .2-.2 1.9-.2 2.1-.4-.7-1.6-2.4-2-2.5.1-.2.2-.5.3-.7.1-.3.2-.7 0-1-.2-.3-.3-.7-.5-1-.1-.4-.1-.4-.5-.4h-.5c-.3 0-.5.1-.9.2-.2.5-.4 1.2-.5 1.8 0 .1.1.2.2.3.1.1.2.1.2.2.2.1 1.5.7 1.9 1.1-.3 1-.5 2-.8 3.1l-1.2-.9c-.4-.3-1.2-1.4-1.4-1.6-.3-.3-3.6-3.1-3.9-3.4-.3-.2-.4-.4-.2-.8 0-.1.1-.1.1-.3-.1 0-.2.1-.2.1-.6.3-1.3.7-1.9 1-.6.3-1.2.7-1.7 1-.2.1-.3.3-.3.5-.1.3-2.4 5.9-2.5 5.9-.1.3-.9 2.8-1.1 3.3 0 .1-.1.2-.1.4.1.4.1.7.2 1 .1.3.2.7.3 1l.3.9c0 .1.1.1.1.2.1.4.2.9.3 1.3 0 .1.1.2.2.3.1.3 0 .6 0 .8 0 .2-.1.4.1.5v.1c0 .1.1.3.1.4v.2c-1.4 1.9-1.8 4.1-1.3 6.3.7 3.2 3.1 5.4 6.3 5.9.5.1 1 .1 1.5.1.1.8.1.7.4 1.1.1.1.2.2.2.4.1.2.2.4.4.5.6.1 1.3.2 1.9.2h.6c.3 0 .6 0 .9-.1.3-.1.7-.2 1-.3.3-.1.8-.2.8-.7h.3c.4.1.8.2 1.2.2 1 .1 2 .2 3 .2.7.1 1.3-.2 2-.4l.1-.1c0-.3-.1-.5-.2-.8-.2-.7-.6-1.3-1.2-1.7-.2-.1-.4-.2-.6-.2h-1.1c-.5 0-.8-.2-.8-.7.3.1.5 0 .7-.2.2-.3.5-.5.7-.8.4-.4.7-.9 1-1.3.4-.6.5-1.2.1-1.8-.1-.1 0-.2.1-.3l.6-.6c.1-.1.2-.3.3-.5.1-.2.3-.4.5-.6.1-.1.1-.3-.1-.4-.1-.1-.2-.2-.1-.3l.4-.4c.1-.1.4.1.5 0 .4-.1.7-.2 1-.4.1-.1.3-.1.4-.2.1 0 .1-.2.1-.2 0-.2-.1-.4-.1-.7 0-.1 0-.1-.1-.2-.1-.2-.1-.5 0-.7.6-.7 1.3-1.4 1.9-2.1 0-.1.1-.1.1-.2l.1-.1c.4-.5.8-.9 1.2-1.4.2.5.4 1.1.6 1.6-.1 0-.1.1-.2.1-2.6 2.1-3.6 4.8-2.9 8 .6 3.1 3.2 5.5 6.3 5.9 3.1.4 5.6-.8 7.4-3.4 1.1-.9 1.5-2.5 1.4-4.2zM118.7 8.3c-.1 0-.1-.1-.1-.2.1 0 .1-.1.2-.1.2 0 .4.1.6.1h.9c-.4.4-1.3.4-1.6.2zm-2.8-1.9c0 .1 0 .2-.1.3l-.1-.1v-.1c-.2.2-.3.5-.5.7 0-.2-.1-.4-.1-.6v-.4V6c.1-.1.2-.3 0-.4 0-.1-.1-.1-.1-.2.2.1.3.1.3-.2 0 0 .1-.1.2-.1h.3c0-.1-.1-.2-.1-.3.1-.1.2-.2.3-.2.3.1.5-.2.7-.3.1-.1.3-.1.4-.2h.3c-.3.5-.5.9-1 1.2-.2.3-.3.7-.5 1.1zm2.2 3.8c-.1-.1-.2-.1-.3-.2v-.2c0-.1.1-.1.2-.1.1-.1.1-.1 0-.2s-.2-.1-.4-.2l.3-.3c-.2 0-.5.1-.6.3 0 .1-.1.1-.1.2-.1.1-.1.2-.2.1-.1-.2 0-.4.1-.7l-.1.1c-.1.2-.2.2-.3.4 0-.1.1-.3.1-.4 0-.1 0-.1.1-.2-.1 0-.1 0-.3-.1l.9-.3c-.2 0-.3-.1-.5-.1v-.1c.3 0 .5-.1.8-.1V8c-.1-.1-.2-.2-.3-.4.2-.1.4-.2.6-.4.6-.3 1-.8 1.2-1.4.1-.1.2-.2.3-.2.2-.1.2.1.3.2.2.3.4.7.6 1 .1.2.2.6.2.8 0 .1-.1-.1-.1-.2-.1-.1-.2-.2-.3-.4-.1-.1-.2-.2-.4-.2s-.5 0-.7.1c-.1 0-.2.1-.2.2-.2.3-.4.4-.7.5 0 0-.1 0-.2.1.1 0 .2.1.3.1 0 .3.1.5.4.6.2.1.4.2.7.3h.4c.1 0 .2-.1.4-.1l-.8.8-.1-.1c0 .1-.1.2-.1.2-.1 0-.1 0-.2-.1 0 .2.2.3 0 .5-.1 0-.1 0-.2.1 0-.1.1-.2.1-.3 0 0 0-.1-.1-.1 0 0-.1 0-.1.1s0 .2-.1.3c-.5.2-.6.3-.6.2zm8.1 38.5v-.2h.3v.2h-.3zm.4-2.5c.1 0 .2 0 .3.1.5.2.7.4.8.9-.1.1-.2 0-.3-.1-.2-.2-.4-.3-.6-.5-.2-.1-.4-.1-.5-.1-.1 0-.2 0-.3-.1.2 0 .4-.1.6-.2zm-6.1-1.7c.1-.5.2-.9.3-1.4l.3-1.2c.1-.3.2-.6.3-1 .2-.8.4-1.7.3-2.5.2 0 .2 0 .2.1 0 .2-.1.5-.1.7-.1.8-.3 1.7-.5 2.5l-.6 2.7v.6c0 .1 0 .2-.2.1v-.6zm-5.4-8.8l-.1.1c-.1 0-.2.1-.3.1.1.1.1.2.2.2.3.2.2.5.4.7 0 0 0 .1-.1.1-.3.1-.5.2-.8.3-.1 0-.2.1-.3.2-.2.3-.3.4-.7.4-.1 0-.2.1-.2.1-.1.3-.3.3-.6.2-.1 0-.3-.1-.4-.1-.4 0-.6-.2-.6-.5v-.2l.2.2c.2.2.2.2.5.1.1-.1.3 0 .5 0 .2.1.3 0 .4-.1 0-.1.1-.1.2-.1s.2 0 .2-.1c.2-.1.2-.2.1-.4 0-.1-.1-.2-.1-.2v-.1c.1 0 .2 0 .3.1.2.1.3.2.5.1s.2-.3.1-.6c-.1-.2-.2-.3-.2-.6 0-.1-.1-.2-.2-.4.2-.1.5 0 .7.1.3.3.3.4.3.4zm-3.3-.4c.3-.2.7-.4 1-.6.4-.2.9-.4 1.3-.6.1-.1.2-.1.4-.2h.1c-.2.4-.1.7-.1 1.1 0 .2-.1.3-.2.4-.4.1-.7.3-1.1.4-.4.1-.6.4-.9.6-.2.2-.4.3-.6.4-.4.2-.7.5-1.1.7-.1 0-.1 0-.2.1-.2-.1-.2-.4-.2-.6 0-.1 0-.1.1-.2.3-.3.6-.6.9-1 .3-.2.4-.4.6-.5zm-1.3-.3c.2 0 .4.2.4.4 0 .3-.2.6-.4.6s-.4-.2-.4-.5.2-.5.4-.5zm7.9 13.3c-.1 0-.3.1-.4.1-.6.1-1.2-.3-1.5-.8-.1-.2.1-.3.2-.4 0 .4.1.6.5.7.3.1.5.1.8.1.1.1.2.2.4.3 0-.1 0 0 0 0zm.7-2.1h-1.7v-.1h1.9v.1c0-.1-.1 0-.2 0zm.3.4c-.1.1-.3.1-.4.1h-1.2c-.1 0-.1-.1-.2-.1v-.1c.6 0 1.2 0 1.8.1zm.1 1.6c-.3 0-.6-.1-.9-.2v-.1c.3.1.6.1 1 .2-.1 0-.1 0-.1.1zm-3.1-2.6c0 .1 0 .1 0 0 .1.3.1.5-.1.7-.1.1-.2.3-.3.5-.1.1-.2.2-.3.2-2.5.1-4.6-.9-6.1-2.9-1.2-1.6-1.6-3.3-1.4-5.3v-.1-.1c-.1 1 0 1.9.2 2.8.2.8.6 1.5 1 2.2 0 .1.1.2.1.2h.1v-.1c0-.1-.1-.2-.2-.3-.3-.5-.6-1-.7-1.6-.1-1.1-.4-2.3-.2-3.5.2-.8.4-1.5.8-2.2 0-.1.1-.1.2-.2s.2-.2.3-.4c.2.2.1.6.2.8 0 .2 0 .3.1.4.1.3.2.6.3.8.3-.1.6-.3 1-.4.1.2.1.4.2.6.1.4.4.8.8.8h.9c.2 0 .4 0 .5.3.1.3.2.7.3 1 0 .1 0 .2.1.3.2.2.2.5.3.8.1.2.1.4.3.5.1.1.2.2.3.2.2.2.2.4 0 .6-.1.1-.1.2-.1.2 0 .1.1.1.2.1.3.1.4.2.2.5-.3.4-.6.8-.6 1.3 0 .1-.1.2-.1.3 0 .2 0 .3-.2.4.1 0 .1.1.1.1.2 0 .4.1.5.1.2 0 .5 0 .7-.1.4 0 .9-.1 1.3-.1.5 0 1-.1 1.5-.1.4 0 .9.1 1.4.1v.2c-1.2.3-2.4.2-3.6.4zm3.3 3.7v-.2h.2l.3.3c-.3-.1-.4-.1-.5-.1zm2-1.3c-.3.2-.7.4-1 .7-.3.2-.6.1-.9.2v-.1c.2-.1.3-.1.5-.2.5-.1.9-.3 1.3-.6.3-.2.3-.4.1-.7-.2-.4-.4-.6-.7-.9-.1-.1-.2-.1-.3-.2l.1-.1c.1 0 .1.1.2.1.2.3.5.6.7.9.1.1.1.2.2.3.1.1.2.2.1.3 0 0 0 .1.1.2-.2-.1-.3 0-.4.1zm.5-12.7l-.1-.1V35c.1-.1.2-.1.3-.2l.1.1c.2.4.1.5-.3.4zm.9 13.1c-.1-.1-.2-.1-.2-.1v-.2h.2c.1.1 0 .2 0 .3zm-.1-16.9c-.2 0-.4-.2-.4-.3 0-.1.2-.3.4-.3s.3.1.3.3c-.1.2-.2.3-.3.3zm.3-3.6c-.2 0-.3 0-.3-.2s.2-.4.3-.4c.1 0 .3.1.3.2 0 .2-.1.3-.3.4zm2.1 20.2c-.5.1-.6.1-.6-.1.2 0 .4.1.6.1zm-.2-1.9c-.2.3-.3.5-.5.8h-.2c.1-.3.5-.8.7-.8zm-.4-.3c-.4.2-.7.4-1.1.6h-.1v-.1c.3-.2.7-.3 1-.5h.2zm.1-1.1c-.1 0-.2 0-.3-.1v-.3c.1.2.2.3.3.4zm1.9-2.1c-.4.5-.8.9-1.2 1.4-.1.1-.3.2-.4.3h-.2c-.1 0-.3-.1-.4-.1 0-.5.1-.9.6-1.3.2-.1.3-.3.3-.5s.2-.3.4-.4c.4-.2.7-.6 1-1 .1-.1.1-.2.3-.3.1.7.1 1.4-.4 1.9zm5-13.5h1v.1h-1s-.1 0-.1-.1h.1zm-.3 5.1c-.3.3-.6.7-.9 1 0-.2.8-1.1.9-1.2.2-.1.1.2 0 .2zm2.1-2.9c-.5.5-1.6 1.8-1.7 1.9l-.1.1-.1.1c-.3.4-.7.8-1 1.1h-.1c.2-.9.3-1.7.5-2.6.2-.8.5-1.7.7-2.6h1.5c.1 0 .2.1.3.2.1.1.1.3.2.5.2.6.1 1-.2 1.3zm.7-1.7c-.1-.4-.2-.7-.3-1.1l-.3-.6c-.1-.2-.2-.5-.3-.7-.1-.2 0-.3.3-.3 1 .1 2 .3 3 .7.4.1.6.5.5 1 0 .4-.2.7-.6.8-.5.1-1.1.2-1.6.3-.2 0-.3 0-.5.1-.1 0-.2 0-.2-.2zM132.1 42c-.1-.8-.3-1.6-.4-2.4h.1c.1.7.2 1.5.3 2.4 0-.1 0-.1 0 0zm13 1.4v.3c-.4.5-.7.9-1.1 1.3-3.1 2.9-7.6 2.6-10.4-.5-.2-.4-.6-.6-.7-1-.1-.3-.3-.6-.5-1 0-.1-.1-.1-.1-.2.1.1.2.2.3.4 0-.3-.1-.5-.1-.8-.1-.7-.2-1.3-.2-2-.1-1.1.1-2.2.6-3.2.3-.6.6-1.1.9-1.7.2-.5.6-.8 1.1-1 .6 1 .8 2.1 1.3 3.2.1.3.3.6.4.8.1.2.5.6.6.5-.4-1.1-.8-1.9-1.1-3.1-.1-.5-.3-.9-.4-1.3-.1-.3 0-.4.3-.3.1 0 .2 0 .4.1v-.4c0-.2.1-.3.3-.4 1.7-.6 3.3-.6 5 0 1.2.4 2.1 1.2 2.9 2.2.1.1.1.2.1.2.1.2.1.5.2.6.5.7.7 1.6.9 2.4.4 1.5.2 3-.6 4.3-.2.1-.2.4-.1.6zm.5-.5c.1-.8.4-1.5.6-2.2h.1c-.2.7-.5 1.5-.7 2.2zm-22.3-38c.1.1.3.2.4.4.7.6 1.4 1.3 1.9 2.2.2.3.4.6.8.8.1 0 .2.1.3.2 0 0 .1.1.1.2 0 .3-.1.6-.1.9v.3c.2 0 .2-.2.2-.3.1-.1.1-.2.2-.3h.2c.1 0 .1-.1.2-.1 0-.1 0-.2.1-.3.1-.4.1-.4.5-.3v-.1c-.1-.2-.1-.3 0-.5.1-.1.1-.2.2-.4h-.1c-.4 0-.4-.1-.3-.4 0-.2.1-.4.2-.6-.4.1-.3-.3-.4-.4-.1.1-.2 0-.3-.1-.1-.2-.2-.4-.4-.5-.3-.2-.5-.4-.6-.8h-.4c-.2-.1-.3-.2-.5-.3-.2-.2-.4-.3-.7-.5-.1-.1-.2-.2-.3-.1-.2 0-.5.1-.7.3h-.1c0-.1-.1-.1-.1-.2-.3.2-.3.4-.4.7-.1-.1-.1-.3-.1-.4V4.9c.1-.1.1 0 .2 0zm.8-.3h.2c.2.3.2.3.5.1l.1-.1V5c0 .1 0 .2.1.4.1-.1.2-.1.4-.2h.2c.1 0 .1.2.1.2-.1.2 0 .3.1.5 0 .1.1.1.1.2s.1.2.1.3h.9c0 .1 0 .2-.1.3-.1.3-.1.3.2.3-.1.3-.2.5-.3.8-.2-.3-.3-.5-.4-.7-.1-.2-.3-.3-.5-.4-.4-.3-.8-.7-1.3-1-.2-.2-.4-.4-.5-.6-.1-.2 0-.4.1-.5z"/><path fill-rule="evenodd" clip-rule="evenodd" d="M122.7 9.5c-.4-.2-.8-.2-1.3-.1-.2.1-.5.1-.7.2-.3.1-.5.3-.8.4V10.3c.1.4.4.5.6.8l.4.4h.1c0-.1-.1-.1-.1-.2v-.2l.1-.1c.1 0 .4.2.4.4s.1.3.2.4c.1.1.1.2.2.3.1.1.2.1.3.2.2-.2.3-.4.4-.6.1-.2.3-.4.4-.6.1-.2.1-.2.3-.1l.1.1c.1-.1.2-.2.3-.2.2-.2.3-.3.1-.6-.4-.4-.7-.6-1-.8zm-.9.2c-.2 0-.3.1-.4.1 0 0-.3.1-.3 0s.2-.2.3-.2c.1 0 .3-.1.4-.1.1.1.1.2 0 .2zm1.4 3.4c-.1.1-.2.1-.2.1-.1 0-.3.1-.4.1-.2-.1-.3-.2-.5-.3l-.3-.3c-.1.1-.2.3-.3.4-.3.1-.4.1-.7.3-.1 0-.2 0-.3-.1 0-.1 0-.3-.2 0l-.3.3c-.1.1-.2.1-.3.1-.1 0-.1-.1-.1-.2s-.1-.1-.1-.1c-.2.1-.4.2-.6.2.1.1.2.1.3.1.2.2.5.3.8.2h.1c.3 0 .7.1 1 .1.1 0 .1 0 .1.1.2.1.3.2.5.3.2.1.4.1.6 0 .2-.2.5-.4.8-.5.3-.1.6-.2 1-.3-.1-.1-.1-.1-.3-.1-.4-.1-.5-.1-.6-.4zm16 26.6c-.3-.2-.5-.1-.7.1.4.4.5.4.7.1.2 0 .1-.1 0-.2z"/><g><path d="M124.3 5.4c-.2-.2-.4-.3-.6-.4-.1 0-.1-.1 0-.1v-.1-.2c.2-.4.4-.8.6-1.3.2-.4.1-.8 0-1.1-.1-.2-.2-.4-.3-.5-.4-.4-.9-.7-1.4-.9-.4-.2-.9-.3-1.4-.3-.6 0-1.2.2-1.6.7l-.6.9c0 .1-.1.2-.2.2-.3 0-.6.1-.9.2-.3.1-.5.4-.6.6-.2.3-.1.6 0 .9.3.5.6.9 1.1 1.1.1.1.3.1.4.2.2.1.5.1.7.2.3.1.6.1.9.2.6.1 1.2.2 1.8.2.5 0 1 .1 1.5 0 .2 0 .4 0 .5-.1.2.1.2-.2.1-.4zm-.9-.2c-3.2 1-5.3-1.4-5.3-1.4l.3-.4c2 3 5.1 1.8 5.1 1.8s.2-.4-.1 0z"/></g></g></svg>