<?xml version="1.0" encoding="utf-8"?>
<!-- Generator: Adobe Illustrator 18.0.0, SVG Export Plug-In . SVG Version: 6.00 Build 0)  -->
<!DOCTYPE svg PUBLIC "-//W3C//DTD SVG 1.1//EN" "http://www.w3.org/Graphics/SVG/1.1/DTD/svg11.dtd">
<svg version="1.1" id="Warstwa_1" xmlns="http://www.w3.org/2000/svg" xmlns:xlink="http://www.w3.org/1999/xlink" x="0px" y="0px"
	 width="16px" height="16px" viewBox="0 0 16 16" enable-background="new 0 0 16 16" xml:space="preserve">
<g>
	<path fill="#4FB8A1" d="M10.7,1.8c-2.4-2.4-6.4-2.4-8.9,0c-2.4,2.4-2.4,6.4,0,8.9c2.2,2.2,5.6,2.4,8,0.7c0.1,0.2,0.2,0.5,0.4,0.7
		l3.6,3.6c0.5,0.5,1.4,0.5,1.9,0c0.5-0.5,0.5-1.4,0-1.9l-3.6-3.6c-0.2-0.2-0.4-0.3-0.7-0.4C13.1,7.4,12.9,4,10.7,1.8z M9.6,9.6
		c-1.8,1.8-4.8,1.8-6.6,0C1.1,7.7,1.1,4.8,3,3c1.8-1.8,4.8-1.8,6.6,0C11.4,4.8,11.4,7.7,9.6,9.6z"/>
</g>
</svg>
