<svg version="1.1" id="Warstwa_1" xmlns="http://www.w3.org/2000/svg" xmlns:xlink="http://www.w3.org/1999/xlink" x="0px" y="0px"
	 width="147px" height="50px" viewBox="0 0 147 50" enable-background="new 0 0 147 50" xml:space="preserve">
<g>
	<g>
		<path fill="#13110C" d="M12.4,14.6H7.5v-1.5c0-0.7-0.1-1.1-0.2-1.3c-0.1-0.2-0.3-0.3-0.6-0.3c-0.3,0-0.6,0.1-0.7,0.4
			c-0.2,0.3-0.2,0.6-0.2,1.2c0,0.7,0.1,1.2,0.3,1.5c0.2,0.3,0.7,0.7,1.5,1.2c2.3,1.4,3.8,2.5,4.4,3.4c0.6,0.9,0.9,2.3,0.9,4.3
			c0,1.4-0.2,2.5-0.5,3.2c-0.3,0.7-1,1.2-1.9,1.7C9.4,28.8,8.3,29,7,29c-1.4,0-2.6-0.3-3.6-0.8c-1-0.5-1.6-1.2-1.9-2
			c-0.3-0.8-0.5-2-0.5-3.5v-1.3h4.9v2.4c0,0.8,0.1,1.2,0.2,1.5c0.1,0.2,0.4,0.3,0.7,0.3c0.3,0,0.6-0.1,0.8-0.4
			c0.2-0.3,0.3-0.7,0.3-1.2c0-1.2-0.2-2-0.5-2.3c-0.3-0.4-1.1-1-2.4-1.8c-1.3-0.9-2.2-1.5-2.6-1.9c-0.4-0.4-0.8-0.9-1-1.6
			c-0.3-0.7-0.4-1.6-0.4-2.6c0-1.5,0.2-2.7,0.6-3.4c0.4-0.7,1-1.3,1.9-1.7c0.9-0.4,1.9-0.6,3.2-0.6c1.4,0,2.5,0.2,3.5,0.7
			c1,0.4,1.6,1,1.9,1.7c0.3,0.7,0.5,1.8,0.5,3.4V14.6z"/>
		<path fill="#13110C" d="M14.4,8.5h8.7v4h-3.5v3.8h3.3v3.8h-3.3v4.4h3.8v4h-9.1V8.5z"/>
		<path fill="#13110C" d="M34.8,8.5l3,20.1h-5.3L32.2,25h-1.9L30,28.6h-5.4l2.7-20.1H34.8z M32.1,21.4c-0.3-2.3-0.5-5.1-0.8-8.4
			c-0.5,3.8-0.9,6.7-1,8.4H32.1z"/>
		<path fill="#13110C" d="M39.3,8.5H43c2.5,0,4.1,0.1,5,0.3c0.9,0.2,1.6,0.7,2.1,1.5c0.5,0.8,0.8,2,0.8,3.7c0,1.6-0.2,2.6-0.6,3.2
			c-0.4,0.5-1.2,0.9-2.3,1c1,0.3,1.7,0.6,2.1,1c0.4,0.4,0.6,0.8,0.7,1.2c0.1,0.4,0.1,1.4,0.1,3v5.3h-4.9v-6.7c0-1.1-0.1-1.7-0.3-2
			c-0.2-0.3-0.6-0.4-1.3-0.4v9.1h-5.2V8.5z M44.5,11.9v4.5c0.6,0,1-0.1,1.2-0.2c0.2-0.2,0.4-0.7,0.4-1.6v-1.1c0-0.6-0.1-1.1-0.3-1.3
			C45.5,12,45.1,11.9,44.5,11.9z"/>
		<path fill="#13110C" d="M65.2,17.2h-5.2v-3.5c0-1-0.1-1.6-0.2-1.9c-0.1-0.3-0.4-0.4-0.7-0.4c-0.4,0-0.7,0.2-0.8,0.5
			c-0.1,0.3-0.2,1-0.2,2v9.3c0,1,0.1,1.6,0.2,1.9c0.1,0.3,0.4,0.4,0.8,0.4c0.4,0,0.6-0.1,0.8-0.4c0.1-0.3,0.2-1,0.2-2.1v-2.5h5.2
			v0.8c0,2.1-0.1,3.6-0.4,4.4c-0.3,0.9-0.9,1.6-1.9,2.3c-1,0.7-2.2,1-3.7,1c-1.5,0-2.8-0.3-3.8-0.8c-1-0.6-1.6-1.3-2-2.3
			s-0.5-2.5-0.5-4.4v-5.9c0-1.4,0-2.5,0.1-3.3c0.1-0.7,0.4-1.4,0.9-2.1c0.5-0.7,1.2-1.2,2-1.6c0.9-0.4,1.9-0.6,3-0.6
			c1.5,0,2.8,0.3,3.8,0.9c1,0.6,1.7,1.3,2,2.2c0.3,0.9,0.5,2.3,0.5,4.1V17.2z"/>
		<path fill="#13110C" d="M79,8.5v20.1h-5.2v-8.4h-1.6v8.4H67V8.5h5.2v7.2h1.6V8.5H79z"/>
		<path fill="#13110C" d="M90.8,8.5v20.1h-5.2V8.5H90.8z"/>
		<path fill="#13110C" d="M103.5,8.5v4h-3.1v16.1h-5.2V12.5H92v-4H103.5z"/>
	</g>
	<g>
		<path fill="#13110C" d="M34.7,42.1c-0.1-0.3-0.2-0.5-0.2-1.4V39c0-1-0.3-1.4-1.1-1.4h-0.6v4.5h-1.7V31h2.6c1.8,0,2.6,0.8,2.6,2.5
			v0.9c0,1.1-0.4,1.9-1.1,2.2c0.9,0.4,1.1,1.2,1.1,2.3v1.7c0,0.5,0,0.9,0.2,1.3H34.7z M32.8,32.6V36h0.7c0.6,0,1-0.3,1-1.2v-1.1
			c0-0.8-0.3-1.1-0.9-1.1H32.8z"/>
		<path fill="#13110C" d="M39.5,35.7h2.4v1.6h-2.4v3.2h3v1.6h-4.7V31h4.7v1.6h-3V35.7z"/>
		<path fill="#13110C" d="M49,38v1.5c0,1.8-0.9,2.8-2.6,2.8c-1.7,0-2.6-1-2.6-2.8v-5.7c0-1.8,0.9-2.8,2.6-2.8c1.7,0,2.6,1,2.6,2.8
			v1.1h-1.6v-1.2c0-0.8-0.3-1.1-0.9-1.1c-0.6,0-0.9,0.3-0.9,1.1v5.9c0,0.8,0.3,1.1,0.9,1.1c0.6,0,0.9-0.3,0.9-1.1V38H49z"/>
		<path fill="#13110C" d="M54.1,42.1c-0.1-0.3-0.2-0.5-0.2-1.4V39c0-1-0.3-1.4-1.1-1.4h-0.6v4.5h-1.7V31h2.6c1.8,0,2.6,0.8,2.6,2.5
			v0.9c0,1.1-0.4,1.9-1.1,2.2c0.9,0.4,1.1,1.2,1.1,2.3v1.7c0,0.5,0,0.9,0.2,1.3H54.1z M52.2,32.6V36h0.7c0.6,0,1-0.3,1-1.2v-1.1
			c0-0.8-0.3-1.1-0.9-1.1H52.2z"/>
		<path fill="#13110C" d="M58.9,31v8.5c0,0.8,0.3,1.1,0.9,1.1c0.6,0,0.9-0.3,0.9-1.1V31h1.6v8.4c0,1.8-0.9,2.8-2.6,2.8
			c-1.7,0-2.6-1-2.6-2.8V31H58.9z"/>
		<path fill="#13110C" d="M63.9,31h1.7v11h-1.7V31z"/>
		<path fill="#13110C" d="M66.8,31h5.3v1.6h-1.8v9.4h-1.7v-9.4h-1.8V31z"/>
		<path fill="#13110C" d="M76.9,38.9l1.2-7.8h2.4v11h-1.6v-7.9l-1.2,7.9h-1.6l-1.3-7.8v7.8h-1.5V31h2.4L76.9,38.9z"/>
		<path fill="#13110C" d="M83.9,35.7h2.4v1.6h-2.4v3.2h3v1.6h-4.7V31h4.7v1.6h-3V35.7z"/>
		<path fill="#13110C" d="M89.9,34.1v8h-1.6V31h2.2l1.8,6.6V31h1.5v11h-1.8L89.9,34.1z"/>
		<path fill="#13110C" d="M95,31h5.3v1.6h-1.8v9.4h-1.7v-9.4H95V31z"/>
	</g>
	<g>
		<g>
			<path fill-rule="evenodd" clip-rule="evenodd" d="M146.6,39.2c-0.1-1.9-0.7-3.6-2.1-4.9c-2.2-2.1-4.7-2.9-7.7-2
				c-0.5,0.2-1,0.4-1.5,0.6c0-0.1-0.1-0.5-0.2-0.6c-0.1-0.4,0.1-0.1,0.4-0.1c0.3,0,0.6-0.1,0.9-0.2c0.1,0,0.1-0.1,0.1-0.2
				c0-0.2,0-0.4,0-0.6c0,0,0,0-0.1,0c0,0.1,0,0.2,0,0.2c-0.2,0-0.4,0-0.6,0c-0.1,0-0.2,0.1-0.3,0.1c-0.1,0-0.1,0-0.2,0
				c0-0.1,0.1-0.1,0.1-0.2c0.2-0.1,0.3-0.2,0.5-0.2c0,0,0.1-0.1,0.1-0.1c-0.1,0-0.1-0.1-0.2-0.1c-0.1,0-0.1,0-0.2,0.1
				c-0.3,0.2-0.6,0.4-0.8,0.6c-0.1-0.2-0.2-0.4-0.2-0.6c0.1,0,0.2,0,0.3-0.1c0.6-0.1,1.2-0.2,1.8-0.3c0.8-0.2,1.4-0.9,1.3-1.8
				c0-0.8-0.5-1.4-1.4-1.6c-0.4-0.1-0.7-0.2-1.1-0.2c-0.8-0.2-1.6-0.3-2.3-0.5c-0.4-0.1-0.5,0.1-0.5,0.5c0,0.1,0.1,0.1,0.1,0.2
				c0.1,0.3,0.2,0.7,0.3,1c0.1,0.2,0,0.5,0.1,0.7c0,0.1,0,0.2-0.2,0.2c-0.4,0-0.7,0-1.1,0.1c-0.2,0-0.2-0.1-0.2-0.2
				c0-0.4,0.1-0.9,0.1-1.3c0-0.1,0-0.3,0-0.4c-0.1-0.4-0.2-0.7-0.4-1.1c-0.2-0.4-0.7-1.2-0.7-1.3c-0.2-0.4-0.7-2-0.8-2.3
				c-0.3-0.8-1.4-3.9-1.6-4.6c-0.1-0.3-0.2-0.5-0.5-0.6c-0.4-0.1-0.9-0.3-1.3-0.4c-0.3-0.1-0.7-0.2-1-0.2c-0.2,0-0.2-0.2-0.2-0.3
				c0-0.1,0-0.2,0.2-0.2c0.1,0,0.1-0.1,0.2-0.1c0.1-0.1,0-0.2,0.1-0.3c0.2-0.2,0.3-0.4,0.6-0.4c0.2-0.1,0.3-0.2,0.3-0.4
				c0,0,0-0.1,0.1-0.1c0.1,0,0.1,0,0.2-0.1c0.1,0.1,0.2,0.2,0.3,0.3c0,0.1,0.1,0.2,0.2,0.2c-0.1-0.3-0.2-0.7-0.3-1.1
				c0.2,0.1,0.3,0.2,0.4,0.2c0,0,0,0,0,0c-0.1-0.2-0.2-0.3-0.2-0.5c0,0,0,0,0-0.1c0.1,0,0.2,0.1,0.3,0.1c0.1,0,0.1,0,0.2,0
				c0-0.1,0-0.1,0-0.2c0-0.1-0.1-0.2-0.1-0.4c0.3,0,0.3,0.4,0.5,0.4c0.1-0.3,0-0.6-0.3-0.8c-0.1-0.1-0.2-0.2-0.4-0.2
				c-0.1-0.1-0.1-0.1,0-0.2c0.2-0.1,0.4-0.2,0.6,0c0,0,0.1,0,0.1,0c-0.1-0.3-0.2-0.5-0.5-0.6c-0.2-0.1-0.4-0.1-0.6-0.2
				c-0.4-0.2-0.5-0.6-0.2-0.9c-0.2-0.1-0.3-0.1-0.5,0c-0.1,0.1-0.3,0.1-0.4,0.1c-0.2,0-0.2-0.1-0.2-0.2c0-0.1,0-0.2,0.1-0.3
				c-0.2,0-0.3,0.2-0.4,0.2c-0.1-0.1-0.2-0.4-0.3-0.6c-0.1,0.1-0.2,0.2-0.3,0.3c0,0-0.1-0.1-0.1-0.1c0,0,0,0-0.1,0
				c0,0.2,0,0.4,0.1,0.6c0,0,0,0-0.1,0c-0.1-0.1-0.3-0.1-0.3-0.2c0-0.2,0.1-0.3,0.1-0.5c-0.1,0-0.2,0-0.3,0c0,0,0,0,0-0.1
				c0,0,0.1,0,0.1-0.1c0,0,0.1-0.1,0-0.1c-0.7,0-1.1-0.5-1.6-0.9c0.5-0.3,1,0,1.4-0.1c0,0,0-0.1,0-0.1c-0.5-0.1-1.4-0.2-1.5-0.4
				c0.2,0,0.5,0.1,0.8,0.1c0.1,0,0.2,0.1,0.3,0.1c0.1,0,0.2,0,0.3,0c0-0.1-0.1-0.2-0.1-0.2c-0.1-0.1-0.2-0.2-0.2-0.3
				c-0.1-0.3-0.3-0.4-0.7-0.4c-0.4,0.1-0.8,0.1-1.1,0.4c0,0.1,0.1,0.3,0.1,0.4c0.1,0.2,0.1,0.5,0.4,0.6c0.1,0,0.2,0.1,0.2,0.2
				c0.5,0.4,1,0.8,1.2,1.4c0.3,0.7,0.5,1.5,0.5,2.3c0,0.4-0.1,0.6-0.5,0.6c0,0,0,0,0,0c0.2,0.2,0.3-0.1,0.5-0.1c0,0.1,0.1,0.2,0,0.3
				c-0.1,0.1-0.3,0.3-0.4,0.3c-0.3,0.1-0.3,0.1-0.2,0.4c-0.2,0.1-0.2,0.4-0.3,0.6c-0.1-0.1-0.3-0.2-0.4-0.4c-0.2-0.2-0.2-0.2-0.4,0
				c-0.2,0.2-0.3,0.4-0.4,0.6c-0.2,0.3-0.5,0.4-0.8,0.5c-0.2,0.1-0.8-0.3-0.9-0.5c-0.1-0.2-0.3-0.4-0.5-0.4c-0.2,0-0.3,0-0.5,0.1
				c-0.2,0.1-0.2,0-0.3-0.1c-0.1-0.2-0.4-0.3-0.6-0.2c0-0.1-0.1-0.1-0.1-0.2c-0.1-0.3-0.3-0.4-0.5-0.3c0,0,0,0,0,0
				c0.1-0.1,0.2-0.2,0.3-0.3c-0.1-0.1-0.2-0.1-0.3-0.2c0.1-0.2,0.2-0.4,0.4-0.2c-0.1-0.2-0.3-0.2-0.3-0.4c-0.1-0.6,0-1.1,0.3-1.7
				c0.2-0.4,0.4-0.8,0.7-1.2c0.2-0.3,0.3-0.6,0.6-0.8c0.4-0.3,0.6-0.7,0.8-1.2c0.1-0.3,0.3-0.5,0.4-0.7c0.2-0.3,0.5-0.2,0.7,0.1
				c0.1,0.1,0.1,0.2,0.2,0.3c0.4-0.2,0.8-0.4,1.1-0.6c0.1-0.1,0.3-0.1,0.5,0c0,0-0.1,0-0.1,0.1c0.3,0.1,0.3,0.1,0.5-0.3
				c0,0,0,0.1,0.1,0.1c0.1,0.2,0.1,0.4,0.2,0.5c0.2,0.1,0.2,0.3,0.3,0.5c0.1,0.2,0.1,0.3,0.2,0.5c0,0,0.1,0.1,0.2,0.1
				c0-0.1,0.1-0.2,0-0.2c-0.2-0.3-0.3-0.7-0.3-1.1c0-0.2,0-0.4-0.3-0.5c0,0-0.1,0-0.1-0.1c-0.1-0.1-0.2-0.3-0.3-0.3
				c-0.1-0.1-0.3-0.4-0.4-0.3c-0.4,0.1-0.6,0.1-0.9-0.1c-0.1,0-0.1-0.1-0.2-0.1c-0.1,0.6-0.1,1.1-0.5,1.5c-0.4-0.3-0.4-0.3-0.8-0.3
				c-0.4,0-0.5-0.1-0.5-0.4c-0.1-0.4-0.1-0.7-0.2-1.1c0-0.1-1.4-0.8-1.4-0.8c0-0.1-0.1-0.2-0.2-0.2c-0.2,0-0.4,0.2-0.4,0.4
				c0,0.2-0.1,0.4-0.2,0.5C118,5.5,118,5.5,118,5.7c0,0.1,0,0.1-0.1,0.2c-0.1,0.1-0.1,0.2-0.2,0.3c-0.1,0.1-0.1,0.2-0.1,0.3
				c0,0,0,0,0,0.1c0,0.2,0,0.4,0,0.6c0,0.2-0.2,0.3-0.3,0.2C117,7.3,117,7.2,117,7c-0.1,0-0.3-0.1-0.4-0.1c0,0,0,0,0-0.1
				c0.1-0.1,0.2-0.1,0.4-0.2c0.1,0,0.1-0.1,0.1-0.2c0-0.1,0-0.3,0-0.4c0-0.1,0.1-0.3,0.2-0.3c0.2-0.1,0.2-0.1,0.2-0.3
				c0-0.2,0-0.5,0.2-0.7c0.4-0.4,0.9-0.9,0.4-1.1c-0.3-0.1-0.7-0.2-1.1-0.2c-0.2,0-0.3,0.1-0.3,0.2c-0.2,0.4-0.4,0.4-0.7,0.3
				c-0.1,0.1-0.2,0.2-0.4,0.3c-0.1,0.1-0.3,0.1-0.5,0.1c0,0,0,0-0.1,0c0,0,0.1,0.1,0.1,0.1c-0.4,0.4-0.9,0.8-1.1,1.3c0,0,0,0,0.1,0
				c0.1-0.1,0.1-0.2,0.2-0.2c0.2,0.4,0,0.8-0.2,1.2c0,0,0,0,0.1,0c0.1-0.1,0.3-0.1,0.4-0.2c0,0,0,0,0.1,0.1
				c-0.2,0.4-0.4,0.9-0.7,1.3c0,0,0,0.1,0,0.1c0.2-0.1,0.4-0.1,0.6-0.2c0,0.3-0.2,0.5-0.4,0.6c0.1,0,0.1,0.1,0.2,0.1
				c0.2,0,0.3,0.1,0.3,0.2c0,0.2,0,0.5-0.2,0.7c-0.2,0.2-0.5,0.3-0.7,0.5c-0.1,0-0.1,0.1-0.1,0.2c0.1,0,0.1,0,0.2,0
				c0.1,0,0.3-0.1,0.5-0.1c-0.2,0.4-0.1,0.4-0.5,0.4c-0.2,0-0.3,0.1-0.3,0.2c0,0.1,0.1,0.2,0.1,0.2c0,0,0,0.1,0,0.1c0,0,0,0.1,0,0.1
				c0.1,0.2,0.1,0.2-0.1,0.3c-0.2,0.1-0.4,0.2-0.6,0.3c0,0,0,0.2,0,0.3c0.1,0,0.1,0,0.2,0c0.2-0.1,0.4-0.1,0.4,0.2
				c0,0.3-0.1,0.6-0.3,0.9c0.2,0.1,0.3,0,0.3-0.1c0.1-0.2,0.2-0.2,0.4-0.3c0,0.1,0,0.2-0.1,0.3c0,0.1-0.1,0.2-0.1,0.3
				c0,0,0,0,0.1,0.1c0.1-0.1,0.2-0.2,0.3-0.3c0.1,0,0.3,0,0.4,0c0.1,0.1,0,0.3-0.1,0.4c-0.1,0.1-0.2,0.3-0.3,0.4c0,0.1,0,0.2,0,0.3
				c0.1,0,0.2,0,0.3,0c0.1,0,0.1-0.1,0.2-0.1c0.2-0.1,0.3-0.3,0.5-0.4c0,0,0,0,0.1,0c0,0.1,0,0.2,0,0.3c-0.1,0.3-0.2,0.6-0.3,0.9
				c0,0.1,0,0.2,0,0.2c0.1,0,0.2,0,0.2,0c0.1-0.1,0.2-0.2,0.3-0.3c0.1,0.1,0.2,0.1,0.3,0.1c0.1,0.1,0.3,0.1,0.4,0.2
				c0.2,0.3,0.3,0.7,0.6,1c0.1,0.1,0.1,0.1,0.2,0.2c0.3-0.7,0.9-0.8,1.5-0.6c0-0.2-0.1-0.3-0.1-0.4c0-0.1,0.1-0.2,0.1-0.3
				c0.1,0.1,0.1,0.1,0.2,0.2c0,0.1,0,0.2,0.1,0.2c0.1,0.1,0.2,0.3,0.3,0.5c0,0,0-0.2,0-0.3c0.2,0.1,0.3,0.1,0.5,0.2
				c0.2,0.2,0.4,0.2,0.6,0.2c0.3,0,0.6,0,0.9,0c0.2,0,0.3,0,0.5,0c0.4,0,0.7-0.2,1-0.4c0.2-0.1,0.4-0.1,0.5,0
				c0.1,0.1,0.1,0.2,0.1,0.3c0,0,0.1-0.1,0.1-0.1c0.1-0.1,0.1-0.2,0.2-0.2c0.1,0,0.2,0,0.3,0c0.1,0,0.2,0.1,0.3,0.2
				c0.2,0.1,0.4,0.2,0.6,0.2c0.1,0,0.2,0,0.3,0c-0.2,0.4-0.2,0.7-0.1,1.1c0.1,0.3,0.4,2,0.5,2.6c0,0.2-0.2,1.9-0.2,2.1
				c-0.4-0.7-1.6-2.4-2-2.5c0.1-0.2,0.2-0.5,0.3-0.7c0.1-0.3,0.2-0.7,0-1c-0.2-0.3-0.3-0.7-0.5-1c-0.1-0.4-0.1-0.4-0.5-0.4
				c0,0-0.1,0-0.1,0c-0.1,0-0.3,0-0.4,0c-0.3,0-0.5,0.1-0.9,0.2c-0.2,0.5-0.4,1.2-0.5,1.8c0,0.1,0.1,0.2,0.2,0.3
				c0.1,0.1,0.2,0.1,0.2,0.2c0.2,0.1,1.5,0.7,1.9,1.1c-0.3,1-0.5,2-0.8,3.1c-0.4-0.3-0.8-0.6-1.2-0.9c-0.4-0.3-1.2-1.4-1.4-1.6
				c-0.3-0.3-3.6-3.1-3.9-3.4c-0.3-0.2-0.4-0.4-0.2-0.8c0-0.1,0.1-0.1,0.1-0.3c-0.1,0-0.2,0.1-0.2,0.1c-0.6,0.3-1.3,0.7-1.9,1
				c-0.6,0.3-1.2,0.7-1.7,1c-0.2,0.1-0.3,0.3-0.3,0.5c-0.1,0.3-2.4,5.9-2.5,5.9c-0.1,0.3-0.9,2.8-1.1,3.3c0,0.1-0.1,0.2-0.1,0.4
				c0.1,0.4,0.1,0.7,0.2,1c0.1,0.3,0.2,0.7,0.3,1c0.1,0.3,0.2,0.6,0.3,0.9c0,0.1,0.1,0.1,0.1,0.2c0.1,0.4,0.2,0.9,0.3,1.3
				c0,0.1,0.1,0.2,0.2,0.3c0.1,0.3,0,0.6,0,0.8c0,0.2-0.1,0.4,0.1,0.5c0,0,0,0.1,0,0.1c0,0.1,0.1,0.3,0.1,0.4c0,0.1,0,0.2,0,0.2
				c-1.4,1.9-1.8,4.1-1.3,6.3c0.7,3.2,3.1,5.4,6.3,5.9c0.5,0.1,1,0.1,1.5,0.1c0.1,0.8,0.1,0.7,0.4,1.1c0.1,0.1,0.2,0.2,0.2,0.4
				c0.1,0.2,0.2,0.4,0.4,0.5c0.6,0.1,1.3,0.2,1.9,0.2c0.2,0,0.4,0,0.6,0c0.3,0,0.6,0,0.9-0.1c0.3-0.1,0.7-0.2,1-0.3
				c0.3-0.1,0.8-0.2,0.8-0.7c0.1,0,0.2,0,0.3,0c0.4,0.1,0.8,0.2,1.2,0.2c1,0.1,2,0.2,3,0.2c0.7,0.1,1.3-0.2,2-0.4
				c0,0,0.1-0.1,0.1-0.1c0-0.3-0.1-0.5-0.2-0.8c-0.2-0.7-0.6-1.3-1.2-1.7c-0.2-0.1-0.4-0.2-0.6-0.2c-0.4,0-0.7,0-1.1,0
				c-0.5,0-0.8-0.2-0.8-0.7c0.3,0.1,0.5,0,0.7-0.2c0.2-0.3,0.5-0.5,0.7-0.8c0.4-0.4,0.7-0.9,1-1.3c0.4-0.6,0.5-1.2,0.1-1.8
				c-0.1-0.1,0-0.2,0.1-0.3c0.2-0.2,0.4-0.4,0.6-0.6c0.1-0.1,0.2-0.3,0.3-0.5c0.1-0.2,0.3-0.4,0.5-0.6c0.1-0.1,0.1-0.3-0.1-0.4
				c-0.1-0.1-0.2-0.2-0.1-0.3c0.1-0.1,0.3-0.3,0.4-0.4c0.1-0.1,0.4,0.1,0.5,0c0.4-0.1,0.7-0.2,1-0.4c0.1-0.1,0.3-0.1,0.4-0.2
				c0.1,0,0.1-0.2,0.1-0.2c0-0.2-0.1-0.4-0.1-0.7c0-0.1,0-0.1-0.1-0.2c-0.1-0.2-0.1-0.5,0-0.7c0.6-0.7,1.3-1.4,1.9-2.1
				c0-0.1,0.1-0.1,0.1-0.2c0.1-0.1,0.1-0.1,0.1-0.1c0.4-0.5,0.8-0.9,1.2-1.4c0.2,0.5,0.4,1.1,0.6,1.6c0,0,0,0,0,0
				c-0.1,0-0.1,0.1-0.2,0.1c-2.6,2.1-3.6,4.8-2.9,8c0.6,3.1,3.2,5.5,6.3,5.9c3.1,0.4,5.6-0.8,7.4-3.4
				C146.3,42.5,146.7,40.9,146.6,39.2z M118.7,8.3c-0.1,0-0.1-0.1-0.1-0.2c0.1,0,0.1-0.1,0.2-0.1c0.2,0,0.4,0.1,0.6,0.1
				c0.3,0,0.6,0,0.9,0C119.9,8.5,119,8.5,118.7,8.3z M115.9,6.4c0,0.1,0,0.2-0.1,0.3c0,0-0.1-0.1-0.1-0.1c0,0,0,0,0,0c0,0,0,0,0-0.1
				c-0.2,0.2-0.3,0.5-0.5,0.7c0-0.2-0.1-0.4-0.1-0.6c0-0.1,0-0.3,0-0.4c0-0.1,0-0.2,0-0.2c0.1-0.1,0.2-0.3,0-0.4
				c0-0.1-0.1-0.1-0.1-0.2c0,0,0,0,0,0c0.2,0.1,0.3,0.1,0.3-0.2c0,0,0.1-0.1,0.2-0.1c0.1,0,0.2,0,0.3,0c0-0.1-0.1-0.2-0.1-0.3
				c0.1-0.1,0.2-0.2,0.3-0.2c0.3,0.1,0.5-0.2,0.7-0.3c0.1-0.1,0.3-0.1,0.4-0.2c0.1,0,0.2,0,0.3,0c-0.3,0.5-0.5,0.9-1,1.2
				C116.2,5.6,116.1,6,115.9,6.4z M118.1,10.2c-0.1-0.1-0.2-0.1-0.3-0.2c0,0,0-0.1,0-0.2c0-0.1,0.1-0.1,0.2-0.1
				c0.1-0.1,0.1-0.1,0-0.2c-0.1-0.1-0.2-0.1-0.4-0.2c0.1-0.1,0.2-0.2,0.3-0.3c-0.2,0-0.5,0.1-0.6,0.3c0,0.1-0.1,0.1-0.1,0.2
				c-0.1,0.1-0.1,0.2-0.2,0.1c-0.1-0.2,0-0.4,0.1-0.7c0,0-0.1,0.1-0.1,0.1c-0.1,0.2-0.2,0.2-0.3,0.4c0,0,0,0,0,0
				c0-0.1,0.1-0.3,0.1-0.4c0-0.1,0-0.1,0.1-0.2c-0.1,0-0.1,0-0.3-0.1c0.3-0.1,0.6-0.2,0.9-0.3c-0.2,0-0.3-0.1-0.5-0.1c0,0,0,0,0-0.1
				c0.3,0,0.5-0.1,0.8-0.1c0,0,0-0.1,0-0.1c-0.1-0.1-0.2-0.2-0.3-0.4c0.2-0.1,0.4-0.2,0.6-0.4c0.6-0.3,1-0.8,1.2-1.4
				c0.1-0.1,0.2-0.2,0.3-0.2c0.2-0.1,0.2,0.1,0.3,0.2c0.2,0.3,0.4,0.7,0.6,1c0.1,0.2,0.2,0.6,0.2,0.8c0,0.1-0.1-0.1-0.1-0.2
				c-0.1-0.1-0.2-0.2-0.3-0.4c-0.1-0.1-0.2-0.2-0.4-0.2c-0.2,0-0.5,0-0.7,0.1c-0.1,0-0.2,0.1-0.2,0.2c-0.2,0.3-0.4,0.4-0.7,0.5
				c0,0-0.1,0-0.2,0.1c0.1,0,0.2,0.1,0.3,0.1c0,0.3,0.1,0.5,0.4,0.6c0.2,0.1,0.4,0.2,0.7,0.3c0.1,0,0.3,0,0.4,0
				c0.1,0,0.2-0.1,0.4-0.1c0,0,0,0,0,0c-0.3,0.3-0.5,0.5-0.8,0.8c0,0-0.1-0.1-0.1-0.1c0,0.1-0.1,0.2-0.1,0.2c-0.1,0-0.1,0-0.2-0.1
				c0,0.2,0.2,0.3,0,0.5c-0.1,0-0.1,0-0.2,0.1c0-0.1,0.1-0.2,0.1-0.3c0,0,0-0.1-0.1-0.1c0,0-0.1,0-0.1,0.1c0,0.1,0,0.2-0.1,0.3
				C118.2,10.2,118.1,10.3,118.1,10.2z M126.2,48.7c0-0.1,0-0.2,0-0.2c0.1,0,0.2,0,0.3,0c0,0.1,0,0.2,0,0.2
				C126.4,48.7,126.3,48.7,126.2,48.7z M126.6,46.2c0.1,0,0.2,0,0.3,0.1c0.5,0.2,0.7,0.4,0.8,0.9c-0.1,0.1-0.2,0-0.3-0.1
				c-0.2-0.2-0.4-0.3-0.6-0.5c-0.2-0.1-0.4-0.1-0.5-0.1c-0.1,0-0.2,0-0.3-0.1C126.2,46.4,126.4,46.3,126.6,46.2z M120.5,44.5
				c0.1-0.5,0.2-0.9,0.3-1.4c0.1-0.4,0.2-0.8,0.3-1.2c0.1-0.3,0.2-0.6,0.3-1c0.2-0.8,0.4-1.7,0.3-2.5c0,0,0,0,0,0
				c0.2,0,0.2,0,0.2,0.1c0,0.2-0.1,0.5-0.1,0.7c-0.1,0.8-0.3,1.7-0.5,2.5c-0.2,0.9-0.4,1.8-0.6,2.7c0,0.2,0,0.4,0,0.6
				c0,0.1,0,0.2-0.2,0.1C120.5,44.9,120.5,44.7,120.5,44.5z M115.1,35.7c0,0-0.1,0.1-0.1,0.1c-0.1,0-0.2,0.1-0.3,0.1
				c0.1,0.1,0.1,0.2,0.2,0.2c0.3,0.2,0.2,0.5,0.4,0.7c0,0,0,0.1-0.1,0.1c-0.3,0.1-0.5,0.2-0.8,0.3c-0.1,0-0.2,0.1-0.3,0.2
				c-0.2,0.3-0.3,0.4-0.7,0.4c-0.1,0-0.2,0.1-0.2,0.1c-0.1,0.3-0.3,0.3-0.6,0.2c-0.1,0-0.3-0.1-0.4-0.1c-0.4,0-0.6-0.2-0.6-0.5
				c0-0.1,0-0.1,0-0.2c0.1,0.1,0.1,0.1,0.2,0.2c0.2,0.2,0.2,0.2,0.5,0.1c0.1-0.1,0.3,0,0.5,0c0.2,0.1,0.3,0,0.4-0.1
				c0-0.1,0.1-0.1,0.2-0.1c0.1,0,0.2,0,0.2-0.1c0.2-0.1,0.2-0.2,0.1-0.4c0-0.1-0.1-0.2-0.1-0.2c0,0,0,0,0-0.1c0.1,0,0.2,0,0.3,0.1
				c0.2,0.1,0.3,0.2,0.5,0.1c0.2-0.1,0.2-0.3,0.1-0.6c-0.1-0.2-0.2-0.3-0.2-0.6c0-0.1-0.1-0.2-0.2-0.4c0.2-0.1,0.5,0,0.7,0.1
				C115.1,35.6,115.1,35.7,115.1,35.7z M111.8,35.3c0.3-0.2,0.7-0.4,1-0.6c0.4-0.2,0.9-0.4,1.3-0.6c0.1-0.1,0.2-0.1,0.4-0.2
				c0,0,0,0,0.1,0c-0.2,0.4-0.1,0.7-0.1,1.1c0,0.2-0.1,0.3-0.2,0.4c-0.4,0.1-0.7,0.3-1.1,0.4c-0.4,0.1-0.6,0.4-0.9,0.6
				c-0.2,0.2-0.4,0.3-0.6,0.4c-0.4,0.2-0.7,0.5-1.1,0.7c-0.1,0-0.1,0-0.2,0.1c-0.2-0.1-0.2-0.4-0.2-0.6c0-0.1,0-0.1,0.1-0.2
				c0.3-0.3,0.6-0.6,0.9-1C111.5,35.6,111.6,35.4,111.8,35.3z M110.5,35c0.2,0,0.4,0.2,0.4,0.4c0,0.3-0.2,0.6-0.4,0.6
				c-0.2,0-0.4-0.2-0.4-0.5C110.1,35.2,110.3,35,110.5,35z M118.4,48.3c-0.1,0-0.3,0.1-0.4,0.1c-0.6,0.1-1.2-0.3-1.5-0.8
				c-0.1-0.2,0.1-0.3,0.2-0.4c0,0.4,0.1,0.6,0.5,0.7c0.3,0.1,0.5,0.1,0.8,0.1C118.1,48.1,118.2,48.2,118.4,48.3
				C118.4,48.2,118.4,48.3,118.4,48.3z M119.1,46.2c-0.4,0-0.8,0-1.2,0c-0.2,0-0.3,0-0.5,0c0,0,0-0.1,0-0.1c0.6,0,1.2,0,1.9,0
				c0,0,0,0,0,0.1C119.3,46.1,119.2,46.2,119.1,46.2z M119.4,46.6C119.4,46.6,119.4,46.6,119.4,46.6c-0.1,0.1-0.3,0.1-0.4,0.1
				c-0.4,0-0.8,0-1.2,0c-0.1,0-0.1-0.1-0.2-0.1c0,0,0-0.1,0-0.1C118.2,46.5,118.8,46.5,119.4,46.6z M119.5,48.2
				c-0.3,0-0.6-0.1-0.9-0.2c0,0,0-0.1,0-0.1c0.3,0.1,0.6,0.1,1,0.2C119.5,48.1,119.5,48.1,119.5,48.2z M116.4,45.6
				C116.4,45.7,116.4,45.7,116.4,45.6c0.1,0.3,0.1,0.5-0.1,0.7c-0.1,0.1-0.2,0.3-0.3,0.5c-0.1,0.1-0.2,0.2-0.3,0.2
				c-2.5,0.1-4.6-0.9-6.1-2.9c-1.2-1.6-1.6-3.3-1.4-5.3c0,0,0-0.1,0-0.1c0,0,0-0.1,0-0.1c-0.1,1,0,1.9,0.2,2.8
				c0.2,0.8,0.6,1.5,1,2.2c0,0.1,0.1,0.2,0.1,0.2c0,0,0.1,0,0.1,0c0,0,0-0.1,0-0.1c0-0.1-0.1-0.2-0.2-0.3c-0.3-0.5-0.6-1-0.7-1.6
				c-0.1-1.1-0.4-2.3-0.2-3.5c0.2-0.8,0.4-1.5,0.8-2.2c0-0.1,0.1-0.1,0.2-0.2c0.1-0.1,0.2-0.2,0.3-0.4c0.2,0.2,0.1,0.6,0.2,0.8
				c0,0.2,0,0.3,0.1,0.4c0.1,0.3,0.2,0.6,0.3,0.8c0.3-0.1,0.6-0.3,1-0.4c0.1,0.2,0.1,0.4,0.2,0.6c0.1,0.4,0.4,0.8,0.8,0.8
				c0.3,0,0.6,0,0.9,0c0.2,0,0.4,0,0.5,0.3c0.1,0.3,0.2,0.7,0.3,1c0,0.1,0,0.2,0.1,0.3c0.2,0.2,0.2,0.5,0.3,0.8
				c0.1,0.2,0.1,0.4,0.3,0.5c0.1,0.1,0.2,0.2,0.3,0.2c0.2,0.2,0.2,0.4,0,0.6c-0.1,0.1-0.1,0.2-0.1,0.2c0,0.1,0.1,0.1,0.2,0.1
				c0.3,0.1,0.4,0.2,0.2,0.5c-0.3,0.4-0.6,0.8-0.6,1.3c0,0.1-0.1,0.2-0.1,0.3c0,0.2,0,0.3-0.2,0.4c0.1,0,0.1,0.1,0.1,0.1
				c0.2,0,0.4,0.1,0.5,0.1c0.2,0,0.5,0,0.7-0.1c0.4,0,0.9-0.1,1.3-0.1c0.5,0,1-0.1,1.5-0.1c0.4,0,0.9,0.1,1.4,0.1c0,0.1,0,0.1,0,0.2
				C118.8,45.5,117.6,45.4,116.4,45.6z M119.7,49.3c0-0.1,0-0.1,0-0.2c0.1,0,0.2,0,0.2,0c0.1,0.1,0.2,0.2,0.3,0.3
				C119.9,49.3,119.8,49.3,119.7,49.3z M121.7,48c-0.3,0.2-0.7,0.4-1,0.7c-0.3,0.2-0.6,0.1-0.9,0.2c0,0,0-0.1,0-0.1
				c0.2-0.1,0.3-0.1,0.5-0.2c0.5-0.1,0.9-0.3,1.3-0.6c0.3-0.2,0.3-0.4,0.1-0.7c-0.2-0.4-0.4-0.6-0.7-0.9c-0.1-0.1-0.2-0.1-0.3-0.2
				c0,0,0,0,0.1-0.1c0.1,0,0.1,0.1,0.2,0.1c0.2,0.3,0.5,0.6,0.7,0.9c0.1,0.1,0.1,0.2,0.2,0.3c0.1,0.1,0.2,0.2,0.1,0.3
				c0,0,0,0.1,0.1,0.2C121.9,47.8,121.8,47.9,121.7,48z M122.2,35.3c0,0-0.1-0.1-0.1-0.1c0-0.1,0-0.2,0-0.2c0.1-0.1,0.2-0.1,0.3-0.2
				c0,0,0.1,0.1,0.1,0.1c0,0,0,0,0,0C122.7,35.3,122.6,35.4,122.2,35.3z M123.1,48.4c-0.1-0.1-0.2-0.1-0.2-0.1c0,0,0-0.2,0-0.2
				c0.1,0,0.1,0,0.2,0C123.2,48.2,123.1,48.3,123.1,48.4z M123,31.5c-0.2,0-0.4-0.2-0.4-0.3c0-0.1,0.2-0.3,0.4-0.3
				c0.2,0,0.3,0.1,0.3,0.3C123.2,31.4,123.1,31.5,123,31.5z M123.3,27.9c-0.2,0-0.3,0-0.3-0.2c0-0.2,0.2-0.4,0.3-0.4
				c0.1,0,0.3,0.1,0.3,0.2C123.6,27.7,123.5,27.8,123.3,27.9z M125.4,48.1C125.4,48.1,125.4,48.1,125.4,48.1
				c-0.5,0.1-0.6,0.1-0.6-0.1C125,48,125.2,48.1,125.4,48.1z M125.2,46.2c-0.2,0.3-0.3,0.5-0.5,0.8c-0.1,0-0.1,0-0.2,0
				C124.6,46.7,125,46.2,125.2,46.2z M124.8,45.9c-0.4,0.2-0.7,0.4-1.1,0.6c0,0-0.1,0-0.1,0c0,0,0-0.1,0-0.1c0.3-0.2,0.7-0.3,1-0.5
				C124.6,45.9,124.7,45.9,124.8,45.9z M124.9,44.8c-0.1,0-0.2,0-0.3-0.1c0-0.1,0-0.2,0-0.3C124.7,44.6,124.8,44.7,124.9,44.8
				C124.9,44.8,124.9,44.8,124.9,44.8z M126.8,42.7c-0.4,0.5-0.8,0.9-1.2,1.4c-0.1,0.1-0.3,0.2-0.4,0.3c0,0-0.1,0-0.2,0
				c-0.1,0-0.3-0.1-0.4-0.1c0-0.5,0.1-0.9,0.6-1.3c0.2-0.1,0.3-0.3,0.3-0.5c0-0.2,0.2-0.3,0.4-0.4c0.4-0.2,0.7-0.6,1-1
				c0.1-0.1,0.1-0.2,0.3-0.3C127.3,41.5,127.3,42.2,126.8,42.7z M131.8,29.2c0.3,0,0.6,0,1,0c0,0,0,0,0,0.1c0,0-0.1,0-0.1,0
				c-0.3,0-0.6,0-0.9,0c0,0-0.1,0-0.1-0.1C131.8,29.2,131.8,29.2,131.8,29.2z M131.5,34.3c-0.3,0.3-0.6,0.7-0.9,1
				c0-0.2,0.8-1.1,0.9-1.2C131.7,34,131.6,34.3,131.5,34.3z M133.6,31.4c-0.5,0.5-1.6,1.8-1.7,1.9c0,0,0,0,0,0c0,0-0.1,0.1-0.1,0.1
				c0,0-0.1,0.1-0.1,0.1l0,0c-0.3,0.4-0.7,0.8-1,1.1c0,0,0,0-0.1,0c0.2-0.9,0.3-1.7,0.5-2.6c0.2-0.8,0.5-1.7,0.7-2.6
				c0.5,0,1,0,1.5,0c0.1,0,0.2,0.1,0.3,0.2c0.1,0.1,0.1,0.3,0.2,0.5C134,30.7,133.9,31.1,133.6,31.4z M134.3,29.7
				c-0.1-0.4-0.2-0.7-0.3-1.1c-0.1-0.2-0.2-0.4-0.3-0.6c-0.1-0.2-0.2-0.5-0.3-0.7c-0.1-0.2,0-0.3,0.3-0.3c1,0.1,2,0.3,3,0.7
				c0.4,0.1,0.6,0.5,0.5,1c0,0.4-0.2,0.7-0.6,0.8c-0.5,0.1-1.1,0.2-1.6,0.3c-0.2,0-0.3,0-0.5,0.1C134.4,29.9,134.3,29.9,134.3,29.7z
				 M132.1,42c-0.1-0.8-0.3-1.6-0.4-2.4c0,0,0,0,0.1,0C131.9,40.3,132,41.1,132.1,42C132.1,41.9,132.1,41.9,132.1,42z M145.1,43.4
				c0,0.1,0,0.2,0,0.3c-0.4,0.5-0.7,0.9-1.1,1.3c-3.1,2.9-7.6,2.6-10.4-0.5c-0.2-0.4-0.6-0.6-0.7-1c-0.1-0.3-0.3-0.6-0.5-1
				c0-0.1-0.1-0.1-0.1-0.2c0.1,0.1,0.2,0.2,0.3,0.4c0,0,0,0,0,0c0-0.3-0.1-0.5-0.1-0.8c-0.1-0.7-0.2-1.3-0.2-2
				c-0.1-1.1,0.1-2.2,0.6-3.2c0.3-0.6,0.6-1.1,0.9-1.7c0.2-0.5,0.6-0.8,1.1-1c0.6,1,0.8,2.1,1.3,3.2c0.1,0.3,0.3,0.6,0.4,0.8
				c0.1,0.2,0.5,0.6,0.6,0.5c-0.4-1.1-0.8-1.9-1.1-3.1c-0.1-0.5-0.3-0.9-0.4-1.3c-0.1-0.3,0-0.4,0.3-0.3c0.1,0,0.2,0,0.4,0.1
				c0-0.2,0-0.3,0-0.4c0-0.2,0.1-0.3,0.3-0.4c1.7-0.6,3.3-0.6,5,0c1.2,0.4,2.1,1.2,2.9,2.2c0.1,0.1,0.1,0.2,0.1,0.2
				c0.1,0.2,0.1,0.5,0.2,0.6c0.5,0.7,0.7,1.6,0.9,2.4c0.4,1.5,0.2,3-0.6,4.3C145,42.9,145,43.2,145.1,43.4z M145.6,42.9
				C145.6,42.9,145.6,42.9,145.6,42.9c0.1-0.8,0.4-1.5,0.6-2.2c0,0,0,0,0.1,0C146.1,41.4,145.8,42.2,145.6,42.9z"/>
			<path fill-rule="evenodd" clip-rule="evenodd" d="M123.3,4.9c0.1,0.1,0.3,0.2,0.4,0.4c0.7,0.6,1.4,1.3,1.9,2.2
				c0.2,0.3,0.4,0.6,0.8,0.8c0.1,0,0.2,0.1,0.3,0.2c0,0,0.1,0.1,0.1,0.2c0,0.3-0.1,0.6-0.1,0.9c0,0.1,0,0.2,0,0.3
				c0.2,0,0.2-0.2,0.2-0.3c0.1-0.1,0.1-0.2,0.2-0.3c0,0,0.1,0,0.2,0c0.1,0,0.1-0.1,0.2-0.1c0-0.1,0-0.2,0.1-0.3
				c0.1-0.4,0.1-0.4,0.5-0.3c0,0,0,0,0,0c0,0,0-0.1,0-0.1c-0.1-0.2-0.1-0.3,0-0.5c0.1-0.1,0.1-0.2,0.2-0.4c-0.1,0-0.1,0-0.1,0
				c-0.4,0-0.4-0.1-0.3-0.4c0-0.2,0.1-0.4,0.2-0.6c-0.4,0.1-0.3-0.3-0.4-0.4c-0.1,0.1-0.2,0-0.3-0.1c-0.1-0.2-0.2-0.4-0.4-0.5
				c-0.3-0.2-0.5-0.4-0.6-0.8c-0.1,0-0.3,0-0.4,0c-0.2-0.1-0.3-0.2-0.5-0.3c-0.2-0.2-0.4-0.3-0.7-0.5c-0.1-0.1-0.2-0.2-0.3-0.1
				c-0.2,0-0.5,0.1-0.7,0.3c0,0,0,0-0.1,0c0-0.1-0.1-0.1-0.1-0.2c-0.3,0.2-0.3,0.4-0.4,0.7c-0.1-0.1-0.1-0.3-0.1-0.4
				c0,0,0,0.2,0,0.2c0,0.2,0,0.3,0,0.4C123.2,4.8,123.2,4.9,123.3,4.9z M124.1,4.6c0,0,0.1,0,0.2,0c0.2,0.3,0.2,0.3,0.5,0.1
				c0,0,0,0,0.1-0.1c0,0.2,0,0.3,0,0.4c0,0.1,0,0.2,0.1,0.4c0.1-0.1,0.2-0.1,0.4-0.2c0.1,0,0.2,0,0.2,0c0.1,0,0.1,0.2,0.1,0.2
				c-0.1,0.2,0,0.3,0.1,0.5c0,0.1,0.1,0.1,0.1,0.2c0,0.1,0.1,0.2,0.1,0.3c0.1,0,0.3,0,0.4,0c0.1,0,0.3,0,0.5,0c0,0.1,0,0.2-0.1,0.3
				c-0.1,0.3-0.1,0.3,0.2,0.3c-0.1,0.3-0.2,0.5-0.3,0.8c-0.2-0.3-0.3-0.5-0.4-0.7c-0.1-0.2-0.3-0.3-0.5-0.4c-0.4-0.3-0.8-0.7-1.3-1
				c-0.2-0.2-0.4-0.4-0.5-0.6C123.9,4.9,124,4.7,124.1,4.6z"/>
			<path fill-rule="evenodd" clip-rule="evenodd" d="M122.7,9.5c-0.4-0.2-0.8-0.2-1.3-0.1c-0.2,0.1-0.5,0.1-0.7,0.2
				c-0.3,0.1-0.5,0.3-0.8,0.4c0,0,0,0.1,0,0.1c0,0.1,0,0.1,0,0.2c0.1,0.4,0.4,0.5,0.6,0.8c0.1,0.1,0.3,0.3,0.4,0.4c0,0,0,0,0.1,0
				c0-0.1-0.1-0.1-0.1-0.2c0,0,0-0.1,0-0.2c0,0,0.1-0.1,0.1-0.1c0.1,0,0.4,0.2,0.4,0.4c0,0.2,0.1,0.3,0.2,0.4
				c0.1,0.1,0.1,0.2,0.2,0.3c0.1,0.1,0.2,0.1,0.3,0.2c0.2-0.2,0.3-0.4,0.4-0.6c0.1-0.2,0.3-0.4,0.4-0.6c0.1-0.2,0.1-0.2,0.3-0.1
				c0,0,0,0,0.1,0.1c0.1-0.1,0.2-0.2,0.3-0.2c0.2-0.2,0.3-0.3,0.1-0.6C123.3,9.9,123,9.7,122.7,9.5z M121.8,9.7
				c-0.2,0-0.3,0.1-0.4,0.1c0,0-0.3,0.1-0.3,0c0-0.1,0.2-0.2,0.3-0.2c0.1,0,0.3-0.1,0.4-0.1C121.9,9.6,121.9,9.7,121.8,9.7z"/>
			<path fill-rule="evenodd" clip-rule="evenodd" d="M123.2,13.1c-0.1,0.1-0.2,0.1-0.2,0.1c-0.1,0-0.3,0.1-0.4,0.1
				c-0.2-0.1-0.3-0.2-0.5-0.3c-0.1-0.1-0.2-0.2-0.3-0.3c-0.1,0.1-0.2,0.3-0.3,0.4c-0.3,0.1-0.4,0.1-0.7,0.3c-0.1,0-0.2,0-0.3-0.1
				c0-0.1,0-0.3-0.2,0c-0.1,0.1-0.2,0.2-0.3,0.3c-0.1,0.1-0.2,0.1-0.3,0.1c-0.1,0-0.1-0.1-0.1-0.2c0-0.1-0.1-0.1-0.1-0.1
				c-0.2,0.1-0.4,0.2-0.6,0.2c0.1,0.1,0.2,0.1,0.3,0.1c0.2,0.2,0.5,0.3,0.8,0.2c0,0,0.1,0,0.1,0c0.3,0,0.7,0.1,1,0.1
				c0.1,0,0.1,0,0.1,0.1c0.2,0.1,0.3,0.2,0.5,0.3c0.2,0.1,0.4,0.1,0.6,0c0.2-0.2,0.5-0.4,0.8-0.5c0.3-0.1,0.6-0.2,1-0.3
				c-0.1-0.1-0.1-0.1-0.3-0.1C123.4,13.4,123.3,13.4,123.2,13.1z"/>
			<path fill-rule="evenodd" clip-rule="evenodd" d="M139.2,39.7c-0.3-0.2-0.5-0.1-0.7,0.1c0.4,0.4,0.5,0.4,0.7,0.1
				C139.4,39.9,139.3,39.8,139.2,39.7z"/>
		</g>
		<g>
			<path d="M124.3,5.4c-0.2-0.2-0.4-0.3-0.6-0.4c-0.1,0-0.1-0.1,0-0.1c0,0,0-0.1,0-0.1c0-0.1,0-0.1,0-0.2c0.2-0.4,0.4-0.8,0.6-1.3
				c0.2-0.4,0.1-0.8,0-1.1c-0.1-0.2-0.2-0.4-0.3-0.5c-0.4-0.4-0.9-0.7-1.4-0.9c-0.4-0.2-0.9-0.3-1.4-0.3c-0.6,0-1.2,0.2-1.6,0.7
				c-0.2,0.3-0.4,0.6-0.6,0.9c0,0.1-0.1,0.2-0.2,0.2c-0.3,0-0.6,0.1-0.9,0.2c-0.3,0.1-0.5,0.4-0.6,0.6c-0.2,0.3-0.1,0.6,0,0.9
				c0.3,0.5,0.6,0.9,1.1,1.1c0.1,0.1,0.3,0.1,0.4,0.2c0.2,0.1,0.5,0.1,0.7,0.2c0.3,0.1,0.6,0.1,0.9,0.2c0.6,0.1,1.2,0.2,1.8,0.2
				c0.5,0,1,0.1,1.5,0c0.2,0,0.4,0,0.5-0.1C124.4,5.9,124.4,5.6,124.3,5.4z M123.4,5.2c-3.2,1-5.3-1.4-5.3-1.4l0.3-0.4
				c2,3,5.1,1.8,5.1,1.8S123.7,4.8,123.4,5.2z"/>
		</g>
	</g>
</g>
</svg>
